<svg xmlns="http://www.w3.org/2000/svg" width="19.685" height="19.719" viewBox="0 0 19.685 19.719">
  <path id="Icon_feather-phone-call" data-name="Icon feather-phone-call" d="M14.317,4.947a4.309,4.309,0,0,1,3.4,3.4M14.317,1.5a7.756,7.756,0,0,1,6.851,6.842m-.862,6.877V17.8a1.723,1.723,0,0,1-1.879,1.723,17.054,17.054,0,0,1-7.437-2.646,16.8,16.8,0,0,1-5.17-5.17A17.054,17.054,0,0,1,3.175,4.24,1.723,1.723,0,0,1,4.89,2.362H7.475A1.723,1.723,0,0,1,9.2,3.844a11.065,11.065,0,0,0,.6,2.421,1.723,1.723,0,0,1-.388,1.818L8.319,9.178a13.788,13.788,0,0,0,5.17,5.17l1.094-1.094a1.723,1.723,0,0,1,1.818-.388,11.065,11.065,0,0,0,2.421.6A1.723,1.723,0,0,1,20.306,15.219Z" transform="translate(-2.367 -0.617)" fill="none" stroke="#da251c" stroke-linecap="round" stroke-linejoin="round" stroke-width="1.6"/>
</svg>
