<svg xmlns="http://www.w3.org/2000/svg" width="34" height="34" viewBox="0 0 34 34">
  <g id="Group_66863" data-name="Group 66863" transform="translate(-0.405 -0.231)">
    <rect id="Rectangle_18041" data-name="Rectangle 18041" width="34" height="34" rx="17" transform="translate(0.405 0.231)" fill="#fff"/>
    <path id="Path_72823" data-name="Path 72823" d="M773.6-1356.566c0-.008,0-.017-.006-.026a2.919,2.919,0,0,0-2.113-2.023,70.167,70.167,0,0,0-8.1-.376c-.264,0-6.478,0-8.12.415a2.92,2.92,0,0,0-2.1,2.045,24.007,24.007,0,0,0-.435,4.665,23.991,23.991,0,0,0,.444,4.742,2.935,2.935,0,0,0,2.1,1.94c1.636.408,7.85.413,8.114.413s6.478,0,8.119-.414a2.917,2.917,0,0,0,2.1-2.045,24.009,24.009,0,0,0,.435-4.63A24.023,24.023,0,0,0,773.6-1356.566Zm-6.759,5.042-5.353,2.843a.445.445,0,0,1-.207.051.441.441,0,0,1-.211-.053.387.387,0,0,1-.208-.338v-5.684a.387.387,0,0,1,.208-.338.444.444,0,0,1,.418,0l5.353,2.842a.386.386,0,0,1,.212.34A.387.387,0,0,1,766.843-1351.524Z" transform="translate(-745.972 1369.112)" fill="red" stroke="rgba(0,0,0,0)" stroke-width="1"/>
  </g>
</svg>
